<svg xmlns="http://www.w3.org/2000/svg" viewBox="0 0 400 420" fill="none">
  <ellipse cx="200" cy="400" rx="160" ry="20" fill="#000" opacity="0.08"/>
  <rect x="60" y="220" width="280" height="160" rx="8" fill="#e5e7eb" stroke="#9ca3af" stroke-width="2"/>
  <rect x="80" y="240" width="240" height="120" rx="4" fill="#1e3a5f"/>
  <rect x="90" y="250" width="220" height="90" rx="2" fill="#3b82f6" opacity="0.3"/>
  <rect x="120" y="380" width="160" height="12" rx="2" fill="#6b7280"/>
  <rect x="140" y="392" width="120" height="8" rx="2" fill="#9ca3af"/>
  <circle cx="200" cy="130" r="55" fill="#fcd9b6"/>
  <path d="M145 130 Q145 80 200 75 Q255 80 255 130" fill="#4a3728"/>
  <ellipse cx="200" cy="200" rx="70" ry="80" fill="#2563eb"/>
  <ellipse cx="155" cy="125" rx="8" ry="10" fill="#fcd9b6"/>
  <ellipse cx="245" cy="125" rx="8" ry="10" fill="#fcd9b6"/>
  <path d="M185 145 Q200 155 215 145" stroke="#c4956a" stroke-width="2" fill="none"/>
  <circle cx="182" cy="120" r="4" fill="#374151"/>
  <circle cx="218" cy="120" r="4" fill="#374151"/>
</svg>
