<svg xmlns="http://www.w3.org/2000/svg" width="400" height="480" viewBox="0 0 400 480" role="img" aria-labelledby="title desc">
  <title id="title">Affiliation profile badge</title>
  <desc id="desc">A formal profile badge for Hon. Prakash Karale.</desc>
  <defs>
    <linearGradient id="bg" x1="0" y1="0" x2="1" y2="1">
      <stop offset="0" stop-color="#eff6ff"/>
      <stop offset="1" stop-color="#dbeafe"/>
    </linearGradient>
    <linearGradient id="seal" x1="0" y1="0" x2="1" y2="1">
      <stop offset="0" stop-color="#facc15"/>
      <stop offset="1" stop-color="#f59e0b"/>
    </linearGradient>
  </defs>
  <rect width="400" height="480" rx="28" fill="url(#bg)"/>
  <circle cx="200" cy="152" r="74" fill="#1d4ed8" opacity="0.12"/>
  <circle cx="200" cy="132" r="54" fill="#1e40af"/>
  <path d="M104 326c10-68 48-104 96-104s86 36 96 104c3 19-12 34-31 34H135c-19 0-34-15-31-34Z" fill="#1e40af"/>
  <circle cx="304" cy="96" r="48" fill="url(#seal)"/>
  <path d="m286 96 13 13 25-30" fill="none" stroke="#7c2d12" stroke-width="12" stroke-linecap="round" stroke-linejoin="round"/>
  <rect x="68" y="384" width="264" height="46" rx="23" fill="#ffffff" opacity="0.94"/>
  <text x="200" y="414" text-anchor="middle" font-family="Arial, Helvetica, sans-serif" font-size="24" font-weight="700" fill="#1e3a8a">Hon. Prakash Karale</text>
</svg>
